<svg width="38" height="34" viewBox="0 0 38 34" fill="none" xmlns="http://www.w3.org/2000/svg">
<path d="M18.6914 8.49023V32.2629" stroke="#E2CECE" stroke-width="3.39862" stroke-linecap="round" stroke-linejoin="round"/>
<path d="M3.39853 27.17C2.94784 27.17 2.51562 26.9911 2.19693 26.6726C1.87825 26.3542 1.69922 25.9223 1.69922 25.4719V3.39727C1.69922 2.94692 1.87825 2.51501 2.19693 2.19657C2.51562 1.87812 2.94784 1.69922 3.39853 1.69922H11.8951C13.6978 1.69922 15.4267 2.41482 16.7014 3.68861C17.9762 4.96239 18.6923 6.69002 18.6923 8.49142C18.6923 6.69002 19.4084 4.96239 20.6832 3.68861C21.9579 2.41482 23.6868 1.69922 25.4895 1.69922H33.9861C34.4368 1.69922 34.869 1.87812 35.1877 2.19657C35.5063 2.51501 35.6854 2.94692 35.6854 3.39727V25.4719C35.6854 25.9223 35.5063 26.3542 35.1877 26.6726C34.869 26.9911 34.4368 27.17 33.9861 27.17H23.7902C22.4382 27.17 21.1415 27.7067 20.1854 28.662C19.2294 29.6174 18.6923 30.9131 18.6923 32.2641C18.6923 30.9131 18.1552 29.6174 17.1992 28.662C16.2431 27.7067 14.9464 27.17 13.5944 27.17H3.39853Z" stroke="#E2CECE" stroke-width="3.39862" stroke-linecap="round" stroke-linejoin="round"/>
</svg>
