<svg width="38" height="32" viewBox="0 0 38 32" fill="none" xmlns="http://www.w3.org/2000/svg">
<path d="M1.68359 10.9691C1.68363 9.09588 2.25187 7.26674 3.31328 5.72327C4.37468 4.17979 5.87931 2.99459 7.62844 2.32419C9.37757 1.65379 11.2889 1.52973 13.11 1.96841C14.9311 2.40708 16.5764 3.38785 17.8284 4.78117C17.9166 4.87546 18.0232 4.95063 18.1416 5.00202C18.26 5.05342 18.3878 5.07994 18.5169 5.07994C18.646 5.07994 18.7737 5.05342 18.8921 5.00202C19.0105 4.95063 19.1172 4.87546 19.2053 4.78117C20.4534 3.37879 22.099 2.38978 23.9231 1.94578C25.7472 1.50178 27.6632 1.62384 29.4162 2.29571C31.1692 2.96759 32.676 4.15742 33.736 5.70684C34.796 7.25625 35.3591 9.09177 35.3501 10.9691C35.3501 14.8239 32.8251 17.7024 30.3001 20.2274L21.0553 29.1709C20.7417 29.5311 20.3549 29.8205 19.9208 30.0198C19.4867 30.2191 19.0152 30.3237 18.5375 30.3267C18.0599 30.3298 17.5871 30.2311 17.1505 30.0373C16.7139 29.8436 16.3235 29.5591 16.0053 29.2029L6.73357 20.2274C4.20858 17.7024 1.68359 14.8407 1.68359 10.9691Z" stroke="#C7BEFA" stroke-width="3.36665" stroke-linecap="round" stroke-linejoin="round"/>
</svg>
