<svg width="38" height="38" viewBox="0 0 38 38" fill="none" xmlns="http://www.w3.org/2000/svg">
<path d="M16.1455 33.1714L33.1704 16.1465C33.9659 15.3668 34.599 14.4372 35.0331 13.4114C35.4671 12.3856 35.6935 11.2839 35.6991 10.1701C35.7047 9.05626 35.4895 7.95235 35.0658 6.9222C34.6422 5.89206 34.0185 4.95612 33.2309 4.16851C32.4433 3.38089 31.5074 2.75722 30.4772 2.33357C29.4471 1.90991 28.3432 1.69468 27.2293 1.7003C26.1155 1.70593 25.0138 1.93231 23.988 2.36634C22.9622 2.80038 22.0326 3.43347 21.253 4.229L4.22803 21.2539C3.43249 22.0336 2.79941 22.9631 2.36537 23.989C1.93133 25.0148 1.70495 26.1164 1.69933 27.2303C1.6937 28.3441 1.90894 29.448 2.33259 30.4782C2.75625 31.5083 3.37991 32.4443 4.16753 33.2319C4.95515 34.0195 5.89108 34.6432 6.92123 35.0668C7.95137 35.4905 9.05528 35.7057 10.1691 35.7001C11.283 35.6945 12.3846 35.4681 13.4105 35.034C14.4363 34.6 15.3659 33.9669 16.1455 33.1714Z" stroke="#E2CECE" stroke-width="3.4" stroke-linecap="round" stroke-linejoin="round"/>
<path d="M12.7383 12.7412L24.6557 24.6587" stroke="#E2CECE" stroke-width="3.4" stroke-linecap="round" stroke-linejoin="round"/>
</svg>
